<!DOCTYPE svg PUBLIC "-//W3C//DTD SVG 1.1//EN" "http://www.w3.org/Graphics/SVG/1.1/DTD/svg11.dtd">
<!-- Uploaded to: SVG Repo, www.svgrepo.com, Transformed by: SVG Repo Mixer Tools -->
<svg width="800px" height="800px" viewBox="-4.8 -4.8 57.60 57.60" fill="none" xmlns="http://www.w3.org/2000/svg" transform="rotate(0)">
<g id="SVGRepo_bgCarrier" stroke-width="0">
<path transform="translate(-4.8, -4.8), scale(1.7999999999999998)" d="M16,31.118516576421612C18.319658229311262,30.57614143159009,18.93562898432343,27.434269389068714,20.780887800645885,25.927615812652846C22.14142003098593,24.816741428778514,24.275192014576106,24.845814019198272,25.36726586386039,23.470145253015204C26.45913815032992,22.09473039243464,26.348032765928643,20.163038204724153,26.71962144856792,18.446683643568313C27.087647080012026,16.74678668582232,27.375518374326454,15.092456383356033,27.555554460942016,13.362520101329999C27.79730198614427,11.039609051666975,29.339736787810473,8.346033544436576,27.967476467827886,6.456255984830875C26.620762871086743,4.6016595228639545,23.56397394614677,5.513852245290315,21.371406559298947,4.846159349926744C19.51662077213429,4.281329598312308,17.924528887681586,2.576371577964697,16,2.8118530529386856C14.060167475024311,3.0492070501208617,13.093778083675957,5.511180280412162,11.226383827916564,6.08748387964501C8.916563608919015,6.800326227576385,6.085504496972177,5.146783550919693,4.076756224001892,6.491530379483754C2.1884598529213104,7.755641264141723,1.8456464351547268,10.439348746257997,1.3978431222686787,12.667152980636576C0.9559288389644395,14.865659519662742,0.4426539809606316,17.332053178341756,1.5002660724691523,19.309469649352373C2.5714640576196706,21.31228765470321,5.465884202231809,21.50406518523025,7.013407209593296,23.16656860707181C8.409352776791955,24.66623243832509,8.471473590468186,27.089292865861424,10.005838974887425,28.447003623146223C11.664871609071149,29.915028434570363,13.842895525441731,31.622883916843413,16,31.118516576421612" fill="#7ed0ec" strokewidth="0"/>
</g>
<g id="SVGRepo_tracerCarrier" stroke-linecap="round" stroke-linejoin="round" stroke="#CCCCCC" stroke-width="0.096"/>
<g id="SVGRepo_iconCarrier"> <rect width="48" height="48" fill="white" fill-opacity="0.01"/> <path d="M24 44C35.0457 44 44 35.0457 44 24C44 12.9543 35.0457 4 24 4C12.9543 4 4 12.9543 4 24C4 35.0457 12.9543 44 24 44Z" fill="#ad241b" stroke="#000000" stroke-width="2.4" stroke-linejoin="round"/> <path d="M24 18C25.6569 18 27 16.6569 27 15C27 13.3431 25.6569 12 24 12C22.3431 12 21 13.3431 21 15C21 16.6569 22.3431 18 24 18Z" fill="#ad241b" stroke="white" stroke-width="2.4" stroke-linejoin="round"/> <path d="M24 36C25.6569 36 27 34.6569 27 33C27 31.3431 25.6569 30 24 30C22.3431 30 21 31.3431 21 33C21 34.6569 22.3431 36 24 36Z" fill="#ad241b" stroke="white" stroke-width="2.4" stroke-linejoin="round"/> <path d="M15 27C16.6569 27 18 25.6569 18 24C18 22.3431 16.6569 21 15 21C13.3431 21 12 22.3431 12 24C12 25.6569 13.3431 27 15 27Z" fill="#ad241b" stroke="white" stroke-width="2.4" stroke-linejoin="round"/> <path d="M33 27C34.6569 27 36 25.6569 36 24C36 22.3431 34.6569 21 33 21C31.3431 21 30 22.3431 30 24C30 25.6569 31.3431 27 33 27Z" fill="#ad241b" stroke="white" stroke-width="2.4" stroke-linejoin="round"/> <path d="M24 44H44" stroke="#000000" stroke-width="2.4" stroke-linecap="round"/> </g>
</svg>